<svg width="177" height="133" viewBox="0 0 177 133" fill="none" xmlns="http://www.w3.org/2000/svg">
<rect width="177" height="133" fill="#E5E5E5"/>
<rect width="177" height="133" fill="white"/>
<rect x="11" y="9" width="155" height="114" fill="#D4D674" fill-opacity="0.2"/>
<rect x="18.4082" y="19" width="139.033" height="95.5912" rx="13" transform="rotate(0.244695 18.4082 19)" fill="#98B993"/>
<path d="M98.4766 52.1953H90.4609V66H85.9375V31.875H97.2344C101.078 31.875 104.031 32.75 106.094 34.5C108.172 36.25 109.211 38.7969 109.211 42.1406C109.211 44.2656 108.633 46.1172 107.477 47.6953C106.336 49.2734 104.742 50.4531 102.695 51.2344L110.711 65.7188V66H105.883L98.4766 52.1953ZM90.4609 48.5156H97.375C99.6094 48.5156 101.383 47.9375 102.695 46.7812C104.023 45.625 104.688 44.0781 104.688 42.1406C104.688 40.0312 104.055 38.4141 102.789 37.2891C101.539 36.1641 99.7266 35.5938 97.3516 35.5781H90.4609V48.5156Z" fill="black"/>
<path d="M46.9609 102V67.875H56.5938C59.5625 67.875 62.1875 68.5312 64.4688 69.8438C66.75 71.1562 68.5078 73.0234 69.7422 75.4453C70.9922 77.8672 71.625 80.6484 71.6406 83.7891V85.9688C71.6406 89.1875 71.0156 92.0078 69.7656 94.4297C68.5312 96.8516 66.7578 98.7109 64.4453 100.008C62.1484 101.305 59.4688 101.969 56.4062 102H46.9609ZM51.4609 71.5781V98.3203H56.1953C59.6641 98.3203 62.3594 97.2422 64.2812 95.0859C66.2188 92.9297 67.1875 89.8594 67.1875 85.875V83.8828C67.1875 80.0078 66.2734 77 64.4453 74.8594C62.6328 72.7031 60.0547 71.6094 56.7109 71.5781H51.4609Z" fill="black"/>
<rect x="79" y="85" width="26" height="22" fill="#90ACD6"/>
<path d="M55 39.25L78.3827 55.75H31.6173L55 39.25Z" fill="#ECF898"/>
<path d="M137.466 27V85.5H104.557L137.466 27Z" fill="#883D9B"/>
</svg>
